<svg width="624" height="624" viewBox="0 0 624 624" fill="none" xmlns="http://www.w3.org/2000/svg">
<rect x="1" y="416" width="208" height="208" fill="#FF8364"/>
<circle cx="129" cy="496" r="4" fill="white"/>
<circle cx="129" cy="472" r="4" fill="white"/>
<circle cx="129" cy="520" r="4" fill="white"/>
<circle cx="129" cy="544" r="4" fill="white"/>
<circle cx="129" cy="568" r="4" fill="white"/>
<circle cx="153" cy="496" r="4" fill="white"/>
<circle cx="153" cy="472" r="4" fill="white"/>
<circle cx="153" cy="520" r="4" fill="white"/>
<circle cx="153" cy="544" r="4" fill="white"/>
<circle cx="153" cy="568" r="4" fill="white"/>
<circle cx="81" cy="496" r="4" fill="white"/>
<circle cx="81" cy="472" r="4" fill="white"/>
<circle cx="81" cy="520" r="4" fill="white"/>
<circle cx="81" cy="544" r="4" fill="white"/>
<circle cx="81" cy="568" r="4" fill="white"/>
<circle cx="105" cy="496" r="4" fill="white"/>
<circle cx="105" cy="472" r="4" fill="white"/>
<circle cx="105" cy="520" r="4" fill="white"/>
<circle cx="105" cy="544" r="4" fill="white"/>
<circle cx="105" cy="568" r="4" fill="white"/>
<circle cx="57" cy="496" r="4" fill="white"/>
<circle cx="57" cy="472" r="4" fill="white"/>
<circle cx="57" cy="520" r="4" fill="white"/>
<circle cx="57" cy="544" r="4" fill="white"/>
<circle cx="57" cy="568" r="4" fill="white"/>
<rect width="208" height="208" fill="#FF8364"/>
<mask id="mask0" mask-type="alpha" maskUnits="userSpaceOnUse" x="0" y="0" width="208" height="208">
<rect width="208" height="208" fill="white"/>
</mask>
<g mask="url(#mask0)">
<circle cy="208" r="146" fill="white"/>
<circle cy="208" r="80" fill="#FF8364"/>
</g>
<rect y="208" width="208" height="208" fill="#221D53"/>
<circle cx="104" cy="312" r="42" stroke="#FFD054" stroke-width="18"/>
<rect x="208" y="416" width="208" height="208" fill="#221D53"/>
<mask id="mask1" mask-type="alpha" maskUnits="userSpaceOnUse" x="208" y="416" width="208" height="208">
<rect x="208" y="416" width="208" height="208" fill="white"/>
</mask>
<g mask="url(#mask1)">
<circle cx="208" cy="624" r="208" fill="#74CAF6"/>
<circle cx="208" cy="624" r="139" fill="#221D53"/>
</g>
<rect x="208" y="208" width="208" height="208" fill="#FFD054"/>
<mask id="mask2" mask-type="alpha" maskUnits="userSpaceOnUse" x="208" y="208" width="208" height="208">
<rect x="208" y="208" width="208" height="208" fill="white"/>
</mask>
<g mask="url(#mask2)">
<circle cx="208" cy="312" r="104" fill="white"/>
</g>
<rect x="312" y="208" width="104" height="208" fill="#FF8364"/>
<rect x="208" width="208" height="208" fill="#221D53"/>
<path fill-rule="evenodd" clip-rule="evenodd" d="M416 104V208H312L416 104Z" fill="#74CAF6"/>
<path fill-rule="evenodd" clip-rule="evenodd" d="M364 52V156H260L364 52Z" fill="#74CAF6"/>
<path fill-rule="evenodd" clip-rule="evenodd" d="M312 0V104H208L312 0Z" fill="#74CAF6"/>
<rect x="416" y="416" width="208" height="208" fill="#FFD054"/>
<circle cx="520" cy="520" r="42" stroke="white" stroke-width="18"/>
<rect x="416" y="208" width="208" height="208" fill="#221D53"/>
<circle cx="538.8" cy="292.4" r="3.2" fill="white"/>
<circle cx="538.8" cy="273.2" r="3.2" fill="white"/>
<circle cx="538.8" cy="311.6" r="3.2" fill="white"/>
<circle cx="538.8" cy="330.8" r="3.2" fill="white"/>
<circle cx="538.8" cy="350" r="3.2" fill="white"/>
<circle cx="558" cy="292.4" r="3.2" fill="white"/>
<circle cx="558" cy="273.2" r="3.2" fill="white"/>
<circle cx="558" cy="311.6" r="3.2" fill="white"/>
<circle cx="558" cy="330.8" r="3.2" fill="white"/>
<circle cx="558" cy="350" r="3.2" fill="white"/>
<circle cx="500.4" cy="292.4" r="3.2" fill="white"/>
<circle cx="500.4" cy="273.2" r="3.2" fill="white"/>
<circle cx="500.4" cy="311.6" r="3.2" fill="white"/>
<circle cx="500.4" cy="330.8" r="3.2" fill="white"/>
<circle cx="500.4" cy="350" r="3.2" fill="white"/>
<circle cx="519.6" cy="292.4" r="3.2" fill="white"/>
<circle cx="519.6" cy="273.2" r="3.2" fill="white"/>
<circle cx="519.6" cy="311.6" r="3.2" fill="white"/>
<circle cx="519.6" cy="330.8" r="3.2" fill="white"/>
<circle cx="519.6" cy="350" r="3.2" fill="white"/>
<circle cx="481.2" cy="292.4" r="3.2" fill="white"/>
<circle cx="481.2" cy="273.2" r="3.2" fill="white"/>
<circle cx="481.2" cy="311.6" r="3.2" fill="white"/>
<circle cx="481.2" cy="330.8" r="3.2" fill="white"/>
<circle cx="481.2" cy="350" r="3.2" fill="white"/>
<rect x="416" width="208" height="208" fill="#FF8364"/>
<mask id="mask3" mask-type="alpha" maskUnits="userSpaceOnUse" x="416" y="0" width="208" height="208">
<rect x="416" width="208" height="208" fill="white"/>
</mask>
<g mask="url(#mask3)">
<circle cx="624" r="82" fill="white"/>
<circle cx="621" r="179" stroke="#FFD054" stroke-width="52"/>
</g>
</svg>
