<svg width="82" height="81" viewBox="0 0 82 81" fill="none" xmlns="http://www.w3.org/2000/svg">
<path fill-rule="evenodd" clip-rule="evenodd" d="M57.6706 10.125C62.1965 10.125 66.5502 11.9137 69.7531 15.1234C72.9593 18.3263 74.7515 22.6463 74.7515 27.1688V53.8312C74.7515 63.2475 67.0902 70.875 57.6706 70.875H24.329C14.9093 70.875 7.25146 63.2475 7.25146 53.8312V27.1688C7.25146 17.7525 14.8756 10.125 24.329 10.125H57.6706ZM63.0401 32.1974L63.3101 31.9274C64.1167 30.9487 64.1167 29.5312 63.2729 28.5524C62.8038 28.0496 62.1592 27.7424 61.4876 27.6749C60.7788 27.6378 60.1038 27.8774 59.5942 28.3499L44.3763 40.4999C42.4188 42.1233 39.6142 42.1233 37.6263 40.4999L22.4388 28.3499C21.3892 27.5737 19.9379 27.6749 19.0638 28.5862C18.1525 29.4974 18.0513 30.9487 18.8242 31.9612L19.2663 32.3999L34.6225 44.3812C36.5125 45.8662 38.8042 46.6762 41.2038 46.6762C43.5967 46.6762 45.9288 45.8662 47.8154 44.3812L63.0401 32.1974Z" fill="white"/>
</svg>
